<mxfile host="app.diagrams.net" modified="2020-09-24T05:49:12.565Z" agent="5.0 (Windows NT 10.0; Win64; x64) AppleWebKit/537.36 (KHTML, like Gecko) Chrome/85.0.4183.121 Safari/537.36" etag="4cmMCDxLFfBryJ3OzrNQ" version="13.7.5" type="github">
  <diagram id="C5RBs43oDa-KdzZeNtuy" name="Page-1">
    <mxGraphModel dx="1185" dy="662" grid="1" gridSize="10" guides="1" tooltips="1" connect="1" arrows="1" fold="1" page="1" pageScale="1" pageWidth="827" pageHeight="1169" math="0" shadow="0">
      <root>
        <mxCell id="WIyWlLk6GJQsqaUBKTNV-0" />
        <mxCell id="WIyWlLk6GJQsqaUBKTNV-1" parent="WIyWlLk6GJQsqaUBKTNV-0" />
        <mxCell id="aCm3fE7Y1v3Ftcd7qreH-5" value="" style="edgeStyle=orthogonalEdgeStyle;rounded=0;orthogonalLoop=1;jettySize=auto;html=1;" edge="1" parent="WIyWlLk6GJQsqaUBKTNV-1" source="aCm3fE7Y1v3Ftcd7qreH-2" target="aCm3fE7Y1v3Ftcd7qreH-4">
          <mxGeometry relative="1" as="geometry" />
        </mxCell>
        <mxCell id="aCm3fE7Y1v3Ftcd7qreH-2" value="시작" style="ellipse;whiteSpace=wrap;html=1;" vertex="1" parent="WIyWlLk6GJQsqaUBKTNV-1">
          <mxGeometry x="300" y="180" width="120" height="60" as="geometry" />
        </mxCell>
        <mxCell id="aCm3fE7Y1v3Ftcd7qreH-7" value="" style="edgeStyle=orthogonalEdgeStyle;rounded=0;orthogonalLoop=1;jettySize=auto;html=1;" edge="1" parent="WIyWlLk6GJQsqaUBKTNV-1" source="aCm3fE7Y1v3Ftcd7qreH-4" target="aCm3fE7Y1v3Ftcd7qreH-6">
          <mxGeometry relative="1" as="geometry" />
        </mxCell>
        <mxCell id="aCm3fE7Y1v3Ftcd7qreH-4" value="맵 크기 입력" style="shape=parallelogram;perimeter=parallelogramPerimeter;whiteSpace=wrap;html=1;fixedSize=1;" vertex="1" parent="WIyWlLk6GJQsqaUBKTNV-1">
          <mxGeometry x="300" y="280" width="120" height="60" as="geometry" />
        </mxCell>
        <mxCell id="aCm3fE7Y1v3Ftcd7qreH-9" value="" style="edgeStyle=orthogonalEdgeStyle;rounded=0;orthogonalLoop=1;jettySize=auto;html=1;" edge="1" parent="WIyWlLk6GJQsqaUBKTNV-1" source="aCm3fE7Y1v3Ftcd7qreH-6" target="aCm3fE7Y1v3Ftcd7qreH-8">
          <mxGeometry relative="1" as="geometry" />
        </mxCell>
        <mxCell id="aCm3fE7Y1v3Ftcd7qreH-6" value="맵크기에 따른&lt;br&gt;난이도 처리" style="whiteSpace=wrap;html=1;" vertex="1" parent="WIyWlLk6GJQsqaUBKTNV-1">
          <mxGeometry x="300" y="380" width="120" height="60" as="geometry" />
        </mxCell>
        <mxCell id="aCm3fE7Y1v3Ftcd7qreH-11" value="" style="edgeStyle=orthogonalEdgeStyle;rounded=0;orthogonalLoop=1;jettySize=auto;html=1;" edge="1" parent="WIyWlLk6GJQsqaUBKTNV-1" source="aCm3fE7Y1v3Ftcd7qreH-8" target="aCm3fE7Y1v3Ftcd7qreH-10">
          <mxGeometry relative="1" as="geometry" />
        </mxCell>
        <mxCell id="aCm3fE7Y1v3Ftcd7qreH-8" value="행동 입력" style="shape=parallelogram;perimeter=parallelogramPerimeter;whiteSpace=wrap;html=1;fixedSize=1;" vertex="1" parent="WIyWlLk6GJQsqaUBKTNV-1">
          <mxGeometry x="300" y="480" width="120" height="60" as="geometry" />
        </mxCell>
        <mxCell id="aCm3fE7Y1v3Ftcd7qreH-13" value="Yes" style="edgeStyle=orthogonalEdgeStyle;rounded=0;orthogonalLoop=1;jettySize=auto;html=1;" edge="1" parent="WIyWlLk6GJQsqaUBKTNV-1" source="aCm3fE7Y1v3Ftcd7qreH-10" target="aCm3fE7Y1v3Ftcd7qreH-12">
          <mxGeometry relative="1" as="geometry" />
        </mxCell>
        <mxCell id="aCm3fE7Y1v3Ftcd7qreH-17" value="No" style="edgeStyle=orthogonalEdgeStyle;rounded=0;orthogonalLoop=1;jettySize=auto;html=1;" edge="1" parent="WIyWlLk6GJQsqaUBKTNV-1" source="aCm3fE7Y1v3Ftcd7qreH-10" target="aCm3fE7Y1v3Ftcd7qreH-16">
          <mxGeometry relative="1" as="geometry" />
        </mxCell>
        <mxCell id="aCm3fE7Y1v3Ftcd7qreH-10" value="몬스터를&lt;br&gt;&amp;nbsp;만났는가?" style="rhombus;whiteSpace=wrap;html=1;" vertex="1" parent="WIyWlLk6GJQsqaUBKTNV-1">
          <mxGeometry x="300" y="584.5" width="120" height="60" as="geometry" />
        </mxCell>
        <mxCell id="aCm3fE7Y1v3Ftcd7qreH-15" value="" style="edgeStyle=orthogonalEdgeStyle;rounded=0;orthogonalLoop=1;jettySize=auto;html=1;" edge="1" parent="WIyWlLk6GJQsqaUBKTNV-1" source="aCm3fE7Y1v3Ftcd7qreH-12" target="aCm3fE7Y1v3Ftcd7qreH-14">
          <mxGeometry relative="1" as="geometry" />
        </mxCell>
        <mxCell id="aCm3fE7Y1v3Ftcd7qreH-12" value="전투 처리&lt;br&gt;(가위바위보)" style="whiteSpace=wrap;html=1;" vertex="1" parent="WIyWlLk6GJQsqaUBKTNV-1">
          <mxGeometry x="300" y="700" width="120" height="60" as="geometry" />
        </mxCell>
        <mxCell id="aCm3fE7Y1v3Ftcd7qreH-24" value="Yes" style="edgeStyle=orthogonalEdgeStyle;rounded=0;orthogonalLoop=1;jettySize=auto;html=1;" edge="1" parent="WIyWlLk6GJQsqaUBKTNV-1" source="aCm3fE7Y1v3Ftcd7qreH-14" target="aCm3fE7Y1v3Ftcd7qreH-23">
          <mxGeometry relative="1" as="geometry" />
        </mxCell>
        <mxCell id="aCm3fE7Y1v3Ftcd7qreH-49" value="No" style="edgeStyle=orthogonalEdgeStyle;rounded=0;orthogonalLoop=1;jettySize=auto;html=1;" edge="1" parent="WIyWlLk6GJQsqaUBKTNV-1" source="aCm3fE7Y1v3Ftcd7qreH-14" target="aCm3fE7Y1v3Ftcd7qreH-26">
          <mxGeometry relative="1" as="geometry" />
        </mxCell>
        <mxCell id="aCm3fE7Y1v3Ftcd7qreH-14" value="전투에서&lt;br&gt;승리했는가?" style="rhombus;whiteSpace=wrap;html=1;" vertex="1" parent="WIyWlLk6GJQsqaUBKTNV-1">
          <mxGeometry x="300" y="800" width="120" height="60" as="geometry" />
        </mxCell>
        <mxCell id="aCm3fE7Y1v3Ftcd7qreH-18" value="No" style="edgeStyle=orthogonalEdgeStyle;rounded=0;orthogonalLoop=1;jettySize=auto;html=1;" edge="1" parent="WIyWlLk6GJQsqaUBKTNV-1" source="aCm3fE7Y1v3Ftcd7qreH-16">
          <mxGeometry relative="1" as="geometry">
            <mxPoint x="360" y="460" as="targetPoint" />
            <Array as="points">
              <mxPoint x="540" y="460" />
            </Array>
          </mxGeometry>
        </mxCell>
        <mxCell id="aCm3fE7Y1v3Ftcd7qreH-20" value="Yes" style="edgeStyle=orthogonalEdgeStyle;rounded=0;orthogonalLoop=1;jettySize=auto;html=1;" edge="1" parent="WIyWlLk6GJQsqaUBKTNV-1" source="aCm3fE7Y1v3Ftcd7qreH-16" target="aCm3fE7Y1v3Ftcd7qreH-19">
          <mxGeometry relative="1" as="geometry" />
        </mxCell>
        <mxCell id="aCm3fE7Y1v3Ftcd7qreH-16" value="상점에&amp;nbsp;&lt;br&gt;들어왔는가?" style="rhombus;whiteSpace=wrap;html=1;" vertex="1" parent="WIyWlLk6GJQsqaUBKTNV-1">
          <mxGeometry x="480" y="584.5" width="120" height="60" as="geometry" />
        </mxCell>
        <mxCell id="aCm3fE7Y1v3Ftcd7qreH-22" style="edgeStyle=orthogonalEdgeStyle;rounded=0;orthogonalLoop=1;jettySize=auto;html=1;" edge="1" parent="WIyWlLk6GJQsqaUBKTNV-1" source="aCm3fE7Y1v3Ftcd7qreH-19">
          <mxGeometry relative="1" as="geometry">
            <mxPoint x="540" y="460" as="targetPoint" />
            <Array as="points">
              <mxPoint x="640" y="730" />
              <mxPoint x="640" y="460" />
            </Array>
          </mxGeometry>
        </mxCell>
        <mxCell id="aCm3fE7Y1v3Ftcd7qreH-19" value="상점 처리&lt;br&gt;(아이템 구매)" style="whiteSpace=wrap;html=1;" vertex="1" parent="WIyWlLk6GJQsqaUBKTNV-1">
          <mxGeometry x="480" y="700" width="120" height="60" as="geometry" />
        </mxCell>
        <mxCell id="aCm3fE7Y1v3Ftcd7qreH-37" style="edgeStyle=orthogonalEdgeStyle;rounded=0;orthogonalLoop=1;jettySize=auto;html=1;" edge="1" parent="WIyWlLk6GJQsqaUBKTNV-1" source="aCm3fE7Y1v3Ftcd7qreH-23">
          <mxGeometry relative="1" as="geometry">
            <mxPoint x="360" y="460" as="targetPoint" />
            <Array as="points">
              <mxPoint x="190" y="460" />
            </Array>
          </mxGeometry>
        </mxCell>
        <mxCell id="aCm3fE7Y1v3Ftcd7qreH-41" style="edgeStyle=orthogonalEdgeStyle;rounded=0;orthogonalLoop=1;jettySize=auto;html=1;" edge="1" parent="WIyWlLk6GJQsqaUBKTNV-1" source="aCm3fE7Y1v3Ftcd7qreH-23" target="aCm3fE7Y1v3Ftcd7qreH-28">
          <mxGeometry relative="1" as="geometry" />
        </mxCell>
        <mxCell id="aCm3fE7Y1v3Ftcd7qreH-23" value="전투 승리 처리&lt;br&gt;(경험치, 골드 획득)" style="whiteSpace=wrap;html=1;" vertex="1" parent="WIyWlLk6GJQsqaUBKTNV-1">
          <mxGeometry x="130" y="800" width="120" height="60" as="geometry" />
        </mxCell>
        <mxCell id="aCm3fE7Y1v3Ftcd7qreH-53" style="edgeStyle=orthogonalEdgeStyle;rounded=0;orthogonalLoop=1;jettySize=auto;html=1;entryX=0.5;entryY=0;entryDx=0;entryDy=0;" edge="1" parent="WIyWlLk6GJQsqaUBKTNV-1" source="aCm3fE7Y1v3Ftcd7qreH-26" target="aCm3fE7Y1v3Ftcd7qreH-33">
          <mxGeometry relative="1" as="geometry">
            <Array as="points">
              <mxPoint x="540" y="880" />
              <mxPoint x="360" y="880" />
            </Array>
          </mxGeometry>
        </mxCell>
        <mxCell id="aCm3fE7Y1v3Ftcd7qreH-26" value="전투 패배 처리&lt;br&gt;(HP 감소)" style="whiteSpace=wrap;html=1;" vertex="1" parent="WIyWlLk6GJQsqaUBKTNV-1">
          <mxGeometry x="480" y="800" width="120" height="60" as="geometry" />
        </mxCell>
        <mxCell id="aCm3fE7Y1v3Ftcd7qreH-34" value="" style="edgeStyle=orthogonalEdgeStyle;rounded=0;orthogonalLoop=1;jettySize=auto;html=1;" edge="1" parent="WIyWlLk6GJQsqaUBKTNV-1" source="aCm3fE7Y1v3Ftcd7qreH-28" target="aCm3fE7Y1v3Ftcd7qreH-33">
          <mxGeometry relative="1" as="geometry" />
        </mxCell>
        <mxCell id="aCm3fE7Y1v3Ftcd7qreH-43" value="Yes" style="edgeStyle=orthogonalEdgeStyle;rounded=0;orthogonalLoop=1;jettySize=auto;html=1;" edge="1" parent="WIyWlLk6GJQsqaUBKTNV-1" source="aCm3fE7Y1v3Ftcd7qreH-28" target="aCm3fE7Y1v3Ftcd7qreH-35">
          <mxGeometry relative="1" as="geometry" />
        </mxCell>
        <mxCell id="aCm3fE7Y1v3Ftcd7qreH-28" value="게임에서 &lt;br&gt;승리했는가?" style="rhombus;whiteSpace=wrap;html=1;" vertex="1" parent="WIyWlLk6GJQsqaUBKTNV-1">
          <mxGeometry x="130" y="900" width="120" height="60" as="geometry" />
        </mxCell>
        <mxCell id="aCm3fE7Y1v3Ftcd7qreH-47" style="edgeStyle=orthogonalEdgeStyle;rounded=0;orthogonalLoop=1;jettySize=auto;html=1;entryX=0;entryY=0.5;entryDx=0;entryDy=0;" edge="1" parent="WIyWlLk6GJQsqaUBKTNV-1" source="aCm3fE7Y1v3Ftcd7qreH-35" target="aCm3fE7Y1v3Ftcd7qreH-45">
          <mxGeometry relative="1" as="geometry">
            <Array as="points">
              <mxPoint x="190" y="1130" />
            </Array>
          </mxGeometry>
        </mxCell>
        <mxCell id="aCm3fE7Y1v3Ftcd7qreH-35" value="게임 승리 처리" style="whiteSpace=wrap;html=1;" vertex="1" parent="WIyWlLk6GJQsqaUBKTNV-1">
          <mxGeometry x="130" y="1000" width="120" height="60" as="geometry" />
        </mxCell>
        <mxCell id="aCm3fE7Y1v3Ftcd7qreH-48" value="No" style="edgeStyle=orthogonalEdgeStyle;rounded=0;orthogonalLoop=1;jettySize=auto;html=1;" edge="1" parent="WIyWlLk6GJQsqaUBKTNV-1" source="aCm3fE7Y1v3Ftcd7qreH-33">
          <mxGeometry relative="1" as="geometry">
            <mxPoint x="640" y="730" as="targetPoint" />
          </mxGeometry>
        </mxCell>
        <mxCell id="aCm3fE7Y1v3Ftcd7qreH-51" value="" style="edgeStyle=orthogonalEdgeStyle;rounded=0;orthogonalLoop=1;jettySize=auto;html=1;" edge="1" parent="WIyWlLk6GJQsqaUBKTNV-1" source="aCm3fE7Y1v3Ftcd7qreH-33" target="aCm3fE7Y1v3Ftcd7qreH-50">
          <mxGeometry relative="1" as="geometry" />
        </mxCell>
        <mxCell id="aCm3fE7Y1v3Ftcd7qreH-33" value="게임에서 &lt;br&gt;패배했는가?" style="rhombus;whiteSpace=wrap;html=1;" vertex="1" parent="WIyWlLk6GJQsqaUBKTNV-1">
          <mxGeometry x="300" y="900" width="120" height="60" as="geometry" />
        </mxCell>
        <mxCell id="aCm3fE7Y1v3Ftcd7qreH-42" value="No" style="edgeStyle=orthogonalEdgeStyle;rounded=0;orthogonalLoop=1;jettySize=auto;html=1;" edge="1" parent="WIyWlLk6GJQsqaUBKTNV-1" source="aCm3fE7Y1v3Ftcd7qreH-28" target="aCm3fE7Y1v3Ftcd7qreH-33">
          <mxGeometry relative="1" as="geometry">
            <mxPoint x="249.99999999999977" y="930.0000000000002" as="sourcePoint" />
            <mxPoint x="560" y="1000" as="targetPoint" />
          </mxGeometry>
        </mxCell>
        <mxCell id="aCm3fE7Y1v3Ftcd7qreH-45" value="종료" style="ellipse;whiteSpace=wrap;html=1;" vertex="1" parent="WIyWlLk6GJQsqaUBKTNV-1">
          <mxGeometry x="300" y="1100" width="120" height="60" as="geometry" />
        </mxCell>
        <mxCell id="aCm3fE7Y1v3Ftcd7qreH-52" style="edgeStyle=orthogonalEdgeStyle;rounded=0;orthogonalLoop=1;jettySize=auto;html=1;" edge="1" parent="WIyWlLk6GJQsqaUBKTNV-1" source="aCm3fE7Y1v3Ftcd7qreH-50" target="aCm3fE7Y1v3Ftcd7qreH-45">
          <mxGeometry relative="1" as="geometry" />
        </mxCell>
        <mxCell id="aCm3fE7Y1v3Ftcd7qreH-50" value="게임 패배 처리" style="whiteSpace=wrap;html=1;" vertex="1" parent="WIyWlLk6GJQsqaUBKTNV-1">
          <mxGeometry x="300" y="1000" width="120" height="60" as="geometry" />
        </mxCell>
      </root>
    </mxGraphModel>
  </diagram>
</mxfile>
